<svg width="1056" height="1037" viewBox="0 0 1056 1037" fill="none" xmlns="http://www.w3.org/2000/svg">
<g opacity="0.08" clip-path="url(#clip0_2001_1788)">
<path d="M1054.76 579.256H535.673C484.485 579.256 435.396 599.603 399.218 635.816C363.084 671.982 342.787 721.018 342.787 772.14V1036.53H467.557V819.206C467.557 756.767 468.681 699.685 468.681 699.685H1054.76V579.256Z" fill="#F0EDE6"/>
<path d="M1054.75 768.415H724.396C673.209 768.415 624.121 788.764 587.942 824.979C551.808 861.142 531.512 910.177 531.512 961.306V1036.54H679.656V933.241C679.656 870.801 679.656 868.65 679.656 868.65H1054.75V768.415Z" fill="#F0EDE6"/>
<path d="M1054.76 945.874C937.48 945.874 871.795 945.835 754.515 945.887V1036.56H1054.76V945.874Z" fill="#F0EDE6"/>
<path d="M1054.76 0.0197407H459.239C337.404 0.0197407 220.562 48.4338 134.432 134.605C48.3559 220.722 0.00244141 337.495 0.00244141 459.254C0.00244141 643.224 0.00244141 911.959 0.00244141 1036.54H102.265V438.684C102.265 345.027 102.265 269.099 102.265 269.099H1054.78V0L1054.76 0.0197407Z" fill="#F0EDE6"/>
<path d="M1054.76 336.042H368.008C316.82 336.042 267.731 356.389 231.553 392.602C195.419 428.77 175.123 477.804 175.123 528.929V1036.54H270.907V623.995C270.907 561.557 270.907 510.951 270.907 510.951H1054.76V336.023V336.042Z" fill="#F0EDE6"/>
</g>
<defs>
<clipPath id="clip0_2001_1788">
<rect width="1056" height="1036.56" fill="white"/>
</clipPath>
</defs>
</svg>
