<svg width="60" height="26" viewBox="0 0 60 26" fill="none" xmlns="http://www.w3.org/2000/svg">
<g clip-path="url(#clip0_2001_1771)">
<g clip-path="url(#clip1_2001_1771)">
<path d="M31.6898 21.9981H25.125V0H31.6898V21.9981Z" fill="black"/>
<path d="M21.4173 6.55964L9.71978 6.56075C8.6065 6.56085 7.70793 7.47001 7.71462 8.58328C7.74149 13.0543 7.69913 17.5271 7.69737 21.9976H1.1333L1.13643 6.75989C1.13704 3.02865 4.16198 0.00375801 7.89385 0.003125L21.4173 0V6.55964Z" fill="black"/>
<path d="M58.7739 6.18476L47.3811 6.18593C44.8432 6.19336 41.8161 7.0386 41.2527 9.91953C40.9145 11.6467 41.354 13.7352 42.8661 14.7771C44.1639 15.6707 45.4768 15.8832 47.076 15.9568L51.98 15.9577C52.6404 15.9579 53.1756 15.4403 53.1757 14.78C53.176 14.1196 52.6412 13.5657 51.9808 13.5657H46.2405V8.43243H58.7739L58.7472 21.9971L46.8979 21.9957C44.1745 21.9957 41.9103 21.6193 39.5428 20.282C37.2372 18.98 35.6977 16.7412 34.9797 14.1809C34.4117 12.1565 34.3995 10.011 34.9364 7.97787C35.5828 5.52891 37.0956 3.47111 39.2288 2.12148C41.6944 0.561764 43.8872 0.0531463 46.794 0H58.7739V6.18476Z" fill="black"/>
</g>
</g>
<defs>
<clipPath id="clip0_2001_1771">
<rect width="60" height="22" fill="white"/>
</clipPath>
<clipPath id="clip1_2001_1771">
<rect width="57.7333" height="22" fill="white" transform="translate(1.1333)"/>
</clipPath>
</defs>
</svg>
