<svg width="48" height="18" viewBox="0 0 48 18" fill="none" xmlns="http://www.w3.org/2000/svg">
<g clip-path="url(#clip0_2001_1940)">
<g clip-path="url(#clip1_2001_1940)">
<path d="M24.9977 17.9985H19.6265V0H24.9977V17.9985Z" fill="black"/>
<path d="M16.5926 5.36698L7.02188 5.36788C6.11102 5.36797 5.37582 6.11183 5.3813 7.02268C5.40328 10.6808 5.36862 14.3403 5.36718 17.998H-0.00341797L-0.000861151 5.53082C-0.000355547 2.47799 2.47459 0.00307474 5.52794 0.00255682L16.5926 0V5.36698Z" fill="black"/>
<path d="M47.1569 5.06026L37.8355 5.06122C35.7591 5.0673 33.2824 5.75885 32.8214 8.11598C32.5447 9.52915 32.9043 11.2379 34.1415 12.0903C35.2033 12.8215 36.2775 12.9953 37.5859 13.0556L41.5983 13.0563C42.1386 13.0564 42.5765 12.6329 42.5766 12.0927C42.5768 11.5524 42.1393 11.0992 41.5989 11.0992H36.9024V6.89926H47.1569L47.1351 17.9976L37.4402 17.9965C35.212 17.9965 33.3594 17.6885 31.4224 16.5944C29.536 15.5291 28.2764 13.6973 27.689 11.6026C27.2243 9.94627 27.2142 8.19079 27.6535 6.52735C28.1824 4.52365 29.4202 2.84 31.1655 1.73576C33.1828 0.459625 34.9769 0.0434833 37.3552 0H47.1569V5.06026Z" fill="black"/>
</g>
</g>
<defs>
<clipPath id="clip0_2001_1940">
<rect width="47.23" height="18" fill="white"/>
</clipPath>
<clipPath id="clip1_2001_1940">
<rect width="47.2364" height="18" fill="white" transform="translate(-0.00341797)"/>
</clipPath>
</defs>
</svg>
